<svg xmlns="http://www.w3.org/2000/svg" viewBox="980 2240 870 805" role="img" aria-label="Peeled banana silhouette with a missing top">
  <defs>
    <clipPath id="chopped-top" clipPathUnits="userSpaceOnUse">
      <path d="M960 2290 1470 2268.1Q1572 2281 1674 2259.1L1870 2250V3070H960Z" />
    </clipPath>
    <style>
      .banana-art > path { fill: #342f2a; }
      .banana-art > path:nth-of-type(3) { fill: #443d37; }
      .banana-art > path:nth-of-type(6),
      .banana-art > path:nth-of-type(8),
      .banana-art > path:nth-of-type(18) { fill: #554c43; }
      .banana-art > path:nth-of-type(7),
      .banana-art > path:nth-of-type(11) { fill: #6f655a; }
      .banana-art > path:nth-of-type(14),
      .banana-art > path:nth-of-type(15),
      .banana-art > path:nth-of-type(16) { fill: #62594f; }
    </style>
  </defs>
  <g class="banana-art" clip-path="url(#chopped-top)">
    <path d="M1356.99,2632.6c-.6.84-60.88,84.21-149.61,142.13-89.56,58.47-151.91,105.19-158.83,119.03-6.11,12.22-24,22.89-32.12,27.25-2.29,1.23-3.8,1.96-4.06,2.08l-1.04-2.17-1.69-3.52c.26-.13,26.38-12.73,33.25-26.46,5.81-11.62,42.26-40.83,100.65-81.06,2.02-1.4,4.06-2.8,6.14-4.23,16.5-11.29,34.64-23.4,54.25-36.2.96-.62,1.91-1.25,2.86-1.88h0c2.14-1.42,4.27-2.86,6.38-4.32,10.88-7.47,21.28-15.28,31.14-23.24,2.12-1.7,4.22-3.42,6.29-5.14,61.54-51.02,100.78-105.28,101.26-105.95l5.13,3.68Z"/>
    <path d="M1377.59,2851.67h0s-2.49-2.42-2.49-2.42c-54.18,55.76-140.57,82.87-203.52,95.79-65.15,13.37-119.29,14.72-124.81,14.82-.72-5.09-2.41-10.53-5.07-15.93-6.33-12.83-16.2-21.37-25.27-22.91-1.74-.3-3.44-.33-5.09-.09-1.48.21-2.9.64-4.25,1.31-5.42,2.69-8.71,8.6-9.25,16.64-.5,7.43,1.43,15.96,5.41,24.02,7.01,14.21,18.36,23.17,28.16,23.17,1.61,0,3.17-.24,4.67-.75l5.02,4.01c1.41.79,35.49,19.59,91.53,30.25,24.58,4.69,49.56,7.04,74.54,7.04,8.43,0,16.85-.27,25.26-.8,40.53-2.59,80.83-11.44,119.83-26.35,1.11-.41,2.22-.85,3.33-1.28l-2.3-5.87c-.82.32-1.64.64-2.47.96-88.16,33.86-166.44,29.7-216.75,20.16-55.1-10.45-89.54-29.42-89.89-29.61l-2.51-1.97c3.57-3.59,5.44-9.16,5.54-15.69,7.2-.15,61.03-1.69,125.54-14.93,40.57-8.32,77.39-19.57,109.43-33.43,38-16.45,69.39-36.63,93.36-60.06,1.39-1.36,2.76-2.72,4.09-4.1l-2.04-1.97ZM1035.07,2978.93c-7.35,3.63-19.34-4.99-26.16-18.82-3.5-7.08-5.19-14.47-4.78-20.82.38-5.7,2.42-9.76,5.75-11.4,1.14-.57,2.4-.83,3.72-.83,7.23,0,16.68,7.97,22.45,19.65,6.82,13.83,6.38,28.59-.98,32.22Z"/>
    <path d="M1035.07,2978.93c-7.35,3.63-19.34-4.99-26.16-18.82-3.5-7.08-5.19-14.47-4.78-20.82.38-5.7,2.42-9.76,5.75-11.4,1.14-.57,2.4-.83,3.72-.83,7.23,0,16.68,7.97,22.45,19.65,6.82,13.83,6.38,28.59-.98,32.22Z"/>
    <path d="M1469.9,2654.83l-1.06.25-5.07,1.2c-.31-1.27-.66-2.32-1.04-3.15-1.45-3.24-3.27-3.66-3.96-3.81-9.64-2.2-31.11,19.09-42.38,33.02l-4.9-3.96c3.24-4,32.09-38.98,48.69-35.21,1.21.28,2.56.8,3.88,1.75,2,1.41,3.94,3.8,5.24,7.74.23.68.43,1.41.61,2.18Z"/>
    <path d="M1664.38,2650.11l-.05-.29c-.07-.27-.45-1.71-1.32-3.97-1.3-3.39-3.69-8.65-7.74-14.63-1.12-1.65-2.36-3.35-3.75-5.09-8.04-10.08-20.78-21.21-40.6-28.68-47.43-17.87-118.58-24.44-162.72,3.38l-.27.2c-1.07.85-23.07,18.3-33.03,29.17-2.9-6.88-8.95-19.59-18.41-31.98-1.26-1.67-2.6-3.33-4-4.97-9.11-10.71-20.89-20.55-35.51-25.3-20.89-6.8-43.62-1.89-67.57,14.59-44.35,30.54-64.45,79.75-73.5,115.65-8.58,34.02-9.14,62.14-9.12,69.39h0c0,1.01,0,1.61.02,1.77l6.31-.15c0-.08-.05-2.19.05-5.92.28-10.86,1.76-35.45,8.89-63.7,8.79-34.79,28.23-82.44,70.92-111.84,22.23-15.3,43.09-19.94,62.01-13.79,37.5,12.19,55.79,62.95,55.97,63.46l2.1,5.96,3.51-5.25c4.83-7.24,26.87-25.47,35.14-32.03,3.93-2.46,8.07-4.63,12.42-6.55.93,5.49,3.11,22.25-.07,45.4-.37,2.66-.8,5.4-1.32,8.22-3.52,19.25-10.81,42.07-25.06,66.11-27.86,47.02-46.15,91.67-60.08,132.41h0c-.7,2.05-1.39,4.07-2.05,6.08-4.92,14.68-9.3,28.84-13.38,42.38-6.04,20.02-17.01,62.78-11.35,93.16.4,2.13.87,4.2,1.44,6.19,1.6,5.62,3.91,10.67,7.09,14.87,6.19,8.15,15.08,12.29,26.42,12.29.32,0,.64,0,.96,0,23.89-.49,52.36-11.61,80.17-31.3,29.66-21.03,57.71-50.89,81.08-86.35,7.51-11.38,14.53-22.46,21.1-33.22,3.24-5.33,6.38-10.57,9.41-15.72,38.76-65.97,59.77-117.87,69.64-145.76,14.29-40.43,16.24-56.55,16.35-61.93.03-1.29-.05-1.97-.09-2.22ZM1642.18,2712.15c-10.51,29.7-33.74,86.81-77.85,159.25-.72,1.18-1.44,2.37-2.18,3.56-6.08,9.91-12.55,20.09-19.43,30.53-44.62,67.69-107.37,113.83-156.12,114.81-9.83.18-17.09-3-22.23-9.79-12.97-17.08-11.53-57.67,3.82-108.58,15.77-52.29,35.86-113.59,74.9-179.48,14.72-24.85,22.14-48.34,25.75-67.38.16-.82.31-1.63.45-2.43,1.22-6.9,1.95-13.17,2.34-18.66,1.45-19.86-.82-33.32-1.53-36.9,42.01-15.63,98.83-8.74,138.6,6.25,38.95,14.67,48.65,45.1,49.45,47.84.11,1.62.32,14.9-15.98,60.97Z"/>
    <path d="M1362.15,2900.12c-6.04,20.02-17.01,62.78-11.35,93.16-88.16,33.86-166.44,29.7-216.75,20.16-55.1-10.45-89.54-29.42-89.89-29.61l-2.51-1.97c3.57-3.59,5.44-9.16,5.54-15.69,7.2-.15,61.03-1.69,125.54-14.93,40.57-8.32,77.39-19.57,109.43-33.43,38-16.45,69.39-36.63,93.36-60.06-4.92,14.68-9.3,28.84-13.38,42.38Z"/>
    <path d="M1642.18,2712.15c-10.51,29.7-33.74,86.81-77.85,159.25-1.03.77-2.06,1.51-3.11,2.25l.93,1.31c-6.08,9.91-12.55,20.09-19.43,30.53-44.62,67.69-107.37,113.83-156.12,114.81-9.83.18-17.09-3-22.23-9.79-12.97-17.08-11.53-57.67,3.82-108.58,15.77-52.29,35.86-113.59,74.9-179.48,14.72-24.85,22.14-48.34,25.75-67.38l1.06-.25c-.18-.77-.39-1.5-.61-2.18,1.22-6.9,1.95-13.17,2.34-18.66,1.45-19.86-.82-33.32-1.53-36.9,42.01-15.63,98.83-8.74,138.6,6.25,38.95,14.67,48.65,45.1,49.45,47.84.11,1.62.32,14.9-15.98,60.97Z"/>
    <path d="M1411.48,2678.37l4.9,3.96c11.27-13.92,32.74-35.22,42.38-33.02.69.15,2.51.57,3.96,3.81-3.52,19.25-10.81,42.07-25.06,66.11-27.86,47.02-46.15,91.67-60.08,132.41l-2.49-2.41c-54.18,55.76-140.57,82.87-203.52,95.79-65.15,13.37-119.29,14.72-124.81,14.82-.72-5.09-2.41-10.53-5.07-15.93-6.33-12.83-16.2-21.37-25.27-22.91,8.12-4.36,26.01-15.03,32.12-27.25,6.92-13.84,69.27-60.56,158.83-119.03,88.73-57.92,149.01-141.3,149.61-142.13l-5.13-3.68c-.48.68-39.72,54.93-101.26,105.95.08-3.64.34-7.34.79-11.07,3.63-29.79,18.34-60.31,43.73-90.7,8.87-10.62,17.09-17.49,30.67-18.96,15.78-1.69,30.43,5.97,38.25,20.02,5.67,10.18,9.18,22.8,10.16,36.49l6.29-.45c-.73-10.18-3.22-25.22-10.94-39.1-9.07-16.31-26.1-25.21-44.44-23.23-15.63,1.68-25.24,9.69-34.85,21.19-26.18,31.34-41.37,62.96-45.15,93.99-.69,5.72-.97,11.43-.82,16.96-9.87,7.96-20.27,15.77-31.14,23.24.28-10.86,1.76-35.45,8.89-63.7,8.79-34.79,28.23-82.44,70.92-111.84,22.23-15.3,43.09-19.94,62.01-13.79,37.5,12.19,55.79,62.95,55.97,63.46l2.1,5.96,3.51-5.25c4.83-7.24,26.87-25.47,35.14-32.03,3.93-2.46,8.07-4.63,12.42-6.55.93,5.49,3.11,22.25-.07,45.4-1.32-.95-2.68-1.47-3.88-1.75-16.6-3.78-45.45,31.21-48.69,35.21Z"/>
    <path d="M1380.51,2670.22l-6.29.45c-.98-13.69-4.5-26.3-10.16-36.49-7.82-14.06-22.47-21.72-38.25-20.02-13.58,1.47-21.81,8.34-30.67,18.96-25.39,30.39-40.1,60.91-43.73,90.7-.45,3.72-.71,7.43-.79,11.07-.05,2.19-.03,4.36.06,6.5l-6.3.27c-.03-.54-.05-1.08-.05-1.63-.15-5.53.13-11.24.82-16.96,3.78-31.03,18.97-62.65,45.15-93.99,9.61-11.5,19.21-19.5,34.85-21.19,18.35-1.98,35.37,6.92,44.44,23.23,7.72,13.88,10.21,28.92,10.94,39.1Z"/>
    <path d="M1736.95,2475.84v.22s-4.3,52.87-4.3,52.87l-.51,6.35-5,61.59-.12,1.41-6.29-.51.06-.83,9.85-121.29c.81-63.47-11.96-123.25-36.93-172.92-28.84-57.36-59.78-89.53-91.95-95.63-18.13-3.43-34.03-3.66-48.62-.7-24.2,4.91-45.35,19.14-61.18,41.15-17.54,24.39-29.48,58.07-31.92,90.08-.66,8.67-16.53,210.08-63.56,260.57-.68.73-1.35,1.42-2.05,2.09l-4.37-4.55c.81-.78,1.61-1.61,2.41-2.51,12.42-13.78,23.89-40.88,33.9-79.8.54-2.12,1.08-4.27,1.62-6.46,4.07-16.64,7.89-35.31,11.42-55.87,10.05-58.55,14.17-111.71,14.34-113.95,2.57-33.62,14.63-67.62,33.08-93.29,16.77-23.32,39.27-38.41,65.05-43.65,15.4-3.13,32.1-2.9,51.05.69,34.2,6.47,66.63,39.78,96.4,98.99,25.45,50.59,38.44,111.42,37.6,175.93Z"/>
    <path d="M1426.38,2513.44c-10.01,38.92-21.48,66.02-33.9,79.8-9.11-10.71-20.89-20.55-35.51-25.3-20.89-6.8-43.62-1.89-67.57,14.59-44.35,30.54-64.45,79.75-73.5,115.65-8.58,34.02-9.14,62.14-9.12,69.39h0c-.95.64-1.9,1.27-2.86,1.89-19.61,12.8-37.75,24.91-54.25,36.2-.46-13.28-.87-48.71,5.51-90.71,7.43-48.92,25.83-117.05,71.31-163.8l.22-.24c.23-.29,22.74-28.48,58.77-46.87,47.34-24.15,94.73-20.99,140.89,9.41Z"/>
    <path d="M1431.76,2509.44l-3.53,5.23c-.61-.41-1.23-.83-1.85-1.23-46.16-30.39-93.55-33.56-140.89-9.41-36.04,18.39-58.55,46.58-58.77,46.87l-.22.24c-45.49,46.76-63.89,114.88-71.31,163.8-6.37,42-5.97,77.42-5.51,90.71.13,3.55.25,5.52.26,5.61l-6.29.43c0-.05-.05-.68-.11-1.82-.44-8.76-1.83-48.08,5.39-95.73,4.79-31.69,12.41-60.83,22.62-86.64,12.79-32.3,29.72-59.44,50.32-80.65,1.93-2.41,24.25-29.75,60.56-48.34,21.95-11.24,44.38-16.85,66.78-16.68,26.65.21,53.13,8.66,78.79,25.14,1.25.79,2.51,1.61,3.76,2.46Z"/>
    <path d="M1826.72,2699.22v.03c0,.14-.02.27-.03.41l-6.29-.46c.51-7.14.78-14.08.81-20.84v-.03c.16-52.25-14.34-92.95-42.44-118.5-18.94-17.22-38.96-22.92-46.63-24.56-2.03-.43-3.19-.59-3.24-.59l.75-6.26c.21.03,1.26.15,3.01.5,7.79,1.52,29.31,7.23,50.08,25.99,14.89,13.44,26.26,30.84,33.78,51.69,9.31,25.77,12.74,56.93,10.2,92.63Z"/>
    <path d="M1730.64,2475.65l-9.85,121.29c-.31,0-.62.03-.93.05-19.88,1.12-40.26,8.69-58.96,21.9-3.48,2.46-6.57,4.85-9.38,7.25-8.04-10.08-20.78-21.21-40.6-28.68-47.43-17.87-118.58-24.44-162.72,3.38l-.27.2c-1.07.85-23.07,18.3-33.03,29.17-2.9-6.88-8.95-19.59-18.41-31.98,47.04-50.49,62.91-251.9,63.56-260.57,2.44-32.02,14.37-65.69,31.92-90.08,15.82-22.01,36.98-36.24,61.18-41.15,14.59-2.96,30.48-2.73,48.62.7,32.17,6.09,63.11,38.27,91.95,95.63,24.97,49.66,37.74,109.45,36.93,172.92Z"/>
    <path d="M1797.82,2833.43c-16.12,35.86-34.63,72.78-60.78,99.82-8.81,9.11-17.64,15.79-26.99,20.41-3.7,1.83-7.5,3.34-11.33,4.52,46.52-29.95,85.27-115.27,87.51-120.25,8.76-17.05,11.62-37.5,14-58.73,6.42-57.04.14-98.91-19.17-127.99-26.67-40.16-79.44-28.38-118.06-5.37-1.3-3.39-3.69-8.65-7.74-14.63,2.75-2.37,5.81-4.74,9.27-7.18,38.09-26.92,79.49-28.02,110.75-2.94,25.34,20.34,42.89,54.22,46.95,90.65,4.05,36.3-3.95,76.1-24.42,121.68Z"/>
    <path d="M1821.21,2678.33c-8.52-25.04-23.21-47.09-41.97-62.15-15.23-12.22-33.12-18.83-52.1-19.31l5-61.59c7.67,1.64,27.69,7.33,46.63,24.56,28.11,25.55,42.6,66.25,42.44,118.5Z"/>
    <path d="M1803.57,2836c-16.35,36.4-35.17,73.89-62,101.63-9.32,9.63-18.72,16.72-28.73,21.67-5.58,2.76-11.36,4.87-17.19,6.25-1.93.46-4.56.56-7.34.66-2.76.1-7.38.26-8.57,1.02,0,0,0,0,0,0l-.59-.93-2.82-4.37h0c1.47-.96,3.04-1.47,4.42-1.92.13-.04.24-.08.37-.13h0c50.82-17.12,98.91-123.54,99.38-124.62l.08-.15c8.3-16.11,11.07-35.97,13.39-56.62,6.24-55.51.3-96-18.16-123.8-24.61-37.06-74.98-24.62-111.34-2.38-.51.32-1.03.63-1.53.95l-3.34-5.34c1.13-.7,2.26-1.4,3.42-2.08,38.61-23.01,91.38-34.79,118.06,5.37,19.31,29.08,25.58,70.95,19.17,127.99-2.38,21.22-5.24,41.68-14,58.73-2.23,4.97-40.98,90.29-87.51,120.25,3.83-1.18,7.62-2.69,11.33-4.52,9.34-4.62,18.18-11.3,26.99-20.41,26.15-27.03,44.66-63.95,60.78-99.82,20.47-45.58,28.47-85.38,24.42-121.68-4.06-36.43-21.61-70.31-46.95-90.65-31.26-25.08-72.66-23.98-110.75,2.94-3.46,2.44-6.52,4.81-9.27,7.18-.73.62-1.44,1.25-2.13,1.87l-4.25-4.66c.85-.77,1.72-1.54,2.63-2.31,2.81-2.4,5.9-4.79,9.38-7.25,18.7-13.21,38.08-20.78,58.96-21.9.31-.02.62-.04.93-.05,2.13-.1,4.24-.13,6.34-.07,18.99.48,36.87,7.09,52.1,19.31,18.76,15.06,33.45,37.11,41.97,62.15v.03c2.3,6.77,4.15,13.75,5.51,20.87v.03c.75,3.9,1.35,7.82,1.79,11.8,4.16,37.45-3.99,78.33-24.94,124.96Z"/>
    <path d="M1793.97,2778.5c-2.32,20.64-5.09,40.51-13.39,56.62l-.08.15c-.48,1.08-48.56,107.5-99.38,124.62h0c-4.94.35-11.91.41-17.1-2.61-22.32-13.01-2.4-52.38,10.79-78.44,3.47-6.83,6.45-12.74,8.16-17.16,14.24-36.93,21.97-77.49,25.07-131.54.1-1.33,4.07-54.85,4.07-54.85.19-2.51-1.39-4.68-3.84-5.27-2.44-.59-4.84.61-5.82,2.93-13.16,31.03-58.63,130.22-123.94,187.06,38.76-65.97,59.77-117.87,69.64-145.76,14.29-40.43,16.24-56.55,16.35-61.93,36.36-22.24,86.73-34.68,111.34,2.38,18.45,27.79,24.39,68.29,18.16,123.8Z"/>
    <path d="M1712.08,2675.3s-3.97,53.52-4.07,54.85c-3.1,54.05-10.83,94.61-25.07,131.54-1.7,4.42-4.69,10.33-8.16,17.16-13.18,26.06-33.11,65.43-10.79,78.44,5.19,3.03,12.17,2.96,17.1,2.61h0c.13,0,.24-.02.37-.03l.48,6.29c-.88.06-1.83.13-2.83.15-.73.04-1.5.05-2.28.05-5.08,0-11-.71-16.02-3.63-12.18-7.1-15.92-20.61-11.12-40.15,3.88-15.83,12.52-32.88,19.46-46.59,3.38-6.69,6.31-12.45,7.89-16.58,13.99-36.29,21.6-76.27,24.65-129.64h0c.06-.9.49-6.7,3.51-47.42-17.51,39.9-67,141.65-136.16,193.39-1.4,1.04-2.79,2.06-4.21,3.06l-2.72-3.84-.93-1.31c1.05-.74,2.08-1.49,3.11-2.25,4.81-3.56,9.53-7.37,14.16-11.39,65.31-56.84,110.78-156.03,123.94-187.06.98-2.32,3.38-3.52,5.82-2.93,2.45.59,4.03,2.76,3.84,5.27Z"/>
  </g>
  <path d="M1470 2268.1Q1572 2281 1674 2259.1" fill="none" stroke="#342f2a" stroke-linecap="round" stroke-width="7"/>
</svg>
